<?xml version="1.0" encoding="utf-8"?><svg xml:space="preserve" viewBox="0 0 100 100" y="0" x="0" xmlns="http://www.w3.org/2000/svg" id="圖層_1" version="1.1" width="200px" height="200px" xmlns:xlink="http://www.w3.org/1999/xlink" style="width:100%;height:100%;background-size:initial;background-repeat-y:initial;background-repeat-x:initial;background-position-y:initial;background-position-x:initial;background-origin:initial;background-color:initial;background-clip:initial;background-attachment:initial;animation-play-state:paused" ><g class="ldl-scale" style="transform-origin:50% 50%;transform:rotate(0deg) scale(1, 1);animation-play-state:paused" ><path fill="#77a4bd" d="M77.9 81.1l.1-.6c.2-1.1.2-2.2 0-3.3-2.3-13-10.1-23.3-20.4-26.8l-.3-.1v-.7l.3-.1C67.9 46 75.7 35.8 78 22.8c.2-1.1.2-2.2 0-3.3l-.1-.6h-5.2l.1.3c.2.6.5 1.5.3 2.7-2 11.2-8.8 20.3-17.4 23.1-2 .6-3.4 2.7-3.4 5 0 2.4 1.4 4.4 3.4 5 8.6 2.8 15.4 11.8 17.4 23.1.2 1.2 0 2.1-.3 2.7l-.1.3H27.3l-.1-.3c-.2-.6-.5-1.5-.3-2.7 2-11.2 8.8-20.3 17.4-23.1 2-.6 3.4-2.7 3.4-5 0-2.4-1.4-4.4-3.4-5-8.6-2.8-15.4-11.8-17.4-23.1-.2-1.2 0-2.1.3-2.7l.1-.3h-5.2l-.1.6c-.2 1.1-.2 2.2 0 3.3 2.3 13 10.1 23.3 20.4 26.8l.3.1v.7l-.3.1C32.1 54 24.3 64.2 22 77.2c-.2 1.1-.2 2.2 0 3.3l.1.6h58.5-2.7z" style="fill:rgb(90, 129, 150);animation-play-state:paused" ></path>
<path d="M22.1 81.1h-2.7 2.7z" fill="#e15b64" style="fill:rgb(225, 91, 100);animation-play-state:paused" ></path>
<path fill="#333" d="M80.6 81.1H19.4c-2.5 0-4.4 2-4.4 4.4 0 2.5 2 4.4 4.4 4.4h61.2c2.5 0 4.4-2 4.4-4.4.1-2.4-1.9-4.4-4.4-4.4z" style="fill:rgb(26, 26, 26);animation-play-state:paused" ></path>
<path fill="#333" d="M72.7 18.9h7.9c2.5 0 4.4-2 4.4-4.4s-2-4.4-4.4-4.4H19.4c-2.5 0-4.4 2-4.4 4.4s2 4.4 4.4 4.4h53.3z" style="fill:rgb(26, 26, 26);animation-play-state:paused" ></path>
<path fill="#f5e6c8" d="M26.9 78.1c-.2 1.2 0 2.1.3 2.7l.1.3h45.5l.1-.3c.2-.6.5-1.5.3-2.7-.7-3.9-2-7.5-3.7-10.7H30.6c-1.8 3.2-3 6.8-3.7 10.7z" style="fill:rgb(242, 214, 157);animation-play-state:paused" ></path>
<path fill="#f5e6c8" d="M55.7 45c6-1.9 11.1-6.9 14.3-13.5H30C33.2 38.1 38.3 43 44.3 45c2 .6 3.4 2.7 3.4 5h4.7c-.1-2.4 1.3-4.4 3.3-5z" style="fill:rgb(242, 214, 157);animation-play-state:paused" ></path>
<path fill="#fff" d="M73.1 21.9c.2-1.2 0-2.1-.3-2.7l-.1-.3H27.3l-.1.3c-.2.6-.5 1.5-.3 2.7.6 3.4 1.7 6.7 3.1 9.6h40c1.5-2.9 2.5-6.2 3.1-9.6z" style="fill:rgb(255, 255, 255);animation-play-state:paused" ></path>
<path fill="#fff" d="M44.3 55c-5.6 1.8-10.5 6.3-13.7 12.3h38.8c-3.3-6-8.1-10.5-13.7-12.3-2-.6-3.4-2.7-3.4-5h-4.7c.1 2.4-1.3 4.4-3.3 5z" style="fill:rgb(255, 255, 255);animation-play-state:paused" ></path>
<metadata xmlns:d="https://loading.io/stock/" style="animation-play-state:paused" ><d:name style="animation-play-state:paused" >hourglass</d:name>
<d:tags style="animation-play-state:paused" >sandglass,time,date,timer,stopwatch,chronoscope,hourglass,web application</d:tags>
<d:license style="animation-play-state:paused" >pro</d:license>
<d:slug style="animation-play-state:paused" >4j5ilt</d:slug></metadata></g><!-- generated by https://loading.io/ --></svg>