<svg width="94" height="94" viewBox="0 0 94 94" fill="none" xmlns="http://www.w3.org/2000/svg">
<path fill-rule="evenodd" clip-rule="evenodd" d="M6.34915 49.6551L5.74879 47.0699L6.34915 44.4492H44.4492V6.34916L47.0363 5.84518L49.6551 6.34916V44.4492H87.7555L88.1353 47.0639L87.7555 49.6551H49.6551V87.7555L47.1788 88.2057L44.4492 87.7555V49.6551H6.34915Z" fill="black" stroke="black" stroke-width="0.288"/>
<path d="M26.5695 30.4236C28.8494 30.4236 30.6976 28.5754 30.6976 26.2955C30.6976 24.0156 28.8494 22.1674 26.5695 22.1674C24.2896 22.1674 22.4414 24.0156 22.4414 26.2955C22.4414 28.5754 24.2896 30.4236 26.5695 30.4236Z" fill="black" stroke="black" stroke-width="0.288"/>
<path fill-rule="evenodd" clip-rule="evenodd" d="M22.0215 75.5031L19.7884 74.234L18.6012 72.0827L43.6319 47.0524L18.6012 22.022L20.0356 19.8628L22.0215 18.6016L47.052 43.6319L72.0827 18.6012L74.246 19.8876L75.5031 22.0215L50.4724 47.0524L75.5031 72.0831L74.3284 74.3099L72.0827 75.5036L47.052 50.4727L22.0215 75.5031Z" fill="black" stroke="black" stroke-width="0.288"/>
<path d="M47.2669 22.2392C49.5468 22.2392 51.395 20.391 51.395 18.1111C51.395 15.8312 49.5468 13.983 47.2669 13.983C44.987 13.983 43.1388 15.8312 43.1388 18.1111C43.1388 20.391 44.987 22.2392 47.2669 22.2392Z" fill="black" stroke="black" stroke-width="0.288"/>
<path d="M47.0524 74.9767C62.7359 74.9767 75.45 62.2627 75.45 46.5791C75.45 30.8955 62.7359 18.1815 47.0524 18.1815C31.3688 18.1815 18.6548 30.8955 18.6548 46.5791C18.6548 62.2627 31.3688 74.9767 47.0524 74.9767Z" fill="url(#paint0_radial_1_3)"/>
<path d="M66.7325 31.5296C69.0124 31.5296 70.8606 29.6814 70.8606 27.4015C70.8606 25.1216 69.0124 23.2734 66.7325 23.2734C64.4527 23.2734 62.6044 25.1216 62.6044 27.4015C62.6044 29.6814 64.4527 31.5296 66.7325 31.5296Z" fill="black" stroke="black" stroke-width="0.288"/>
<path d="M27.2331 70.8527C29.513 70.8527 31.3612 69.0045 31.3612 66.7247C31.3612 64.4448 29.513 62.5966 27.2331 62.5966C24.9532 62.5966 23.105 64.4448 23.105 66.7247C23.105 69.0045 24.9532 70.8527 27.2331 70.8527Z" fill="black" stroke="black" stroke-width="0.288"/>
<path d="M66.7325 70.8527C69.0124 70.8527 70.8606 69.0045 70.8606 66.7247C70.8606 64.4448 69.0124 62.5966 66.7325 62.5966C64.4527 62.5966 62.6044 64.4448 62.6044 66.7247C62.6044 69.0045 64.4527 70.8527 66.7325 70.8527Z" fill="black" stroke="black" stroke-width="0.288"/>
<path d="M42.0523 46.7987C44.1663 46.7987 45.8799 45.085 45.8799 42.9711C45.8799 40.8572 44.1663 39.1435 42.0523 39.1435C39.9384 39.1435 38.2247 40.8572 38.2247 42.9711C38.2247 45.085 39.9384 46.7987 42.0523 46.7987Z" fill="white"/>
<defs>
<radialGradient id="paint0_radial_1_3" cx="0" cy="0" r="1" gradientUnits="userSpaceOnUse" gradientTransform="translate(41.3728 42.0355) scale(14.508)">
<stop stop-color="white"/>
<stop offset="0.130208" stop-color="#E5E5E1"/>
<stop offset="0.290196" stop-color="#CCC8C8"/>
<stop offset="0.439216" stop-color="#B2B4B4"/>
<stop offset="0.74902" stop-color="#464D43"/>
<stop offset="1"/>
</radialGradient>
</defs>
</svg>
